<mxfile host="app.diagrams.net" modified="2023-02-16T08:59:03.268Z" agent="5.0 (Windows)" etag="HB0WZ7k72N5u7vlTQMIK" version="20.8.20" type="github">
  <diagram id="C5RBs43oDa-KdzZeNtuy" name="Page-1">
    <mxGraphModel dx="1434" dy="782" grid="1" gridSize="10" guides="1" tooltips="1" connect="1" arrows="1" fold="1" page="1" pageScale="1" pageWidth="827" pageHeight="1169" math="0" shadow="0">
      <root>
        <mxCell id="WIyWlLk6GJQsqaUBKTNV-0" />
        <mxCell id="WIyWlLk6GJQsqaUBKTNV-1" parent="WIyWlLk6GJQsqaUBKTNV-0" />
        <mxCell id="AtObkG09vBZRzQi73Pwc-2" value="" style="edgeStyle=orthogonalEdgeStyle;rounded=0;orthogonalLoop=1;jettySize=auto;html=1;" edge="1" parent="WIyWlLk6GJQsqaUBKTNV-1" source="AtObkG09vBZRzQi73Pwc-0" target="AtObkG09vBZRzQi73Pwc-1">
          <mxGeometry relative="1" as="geometry" />
        </mxCell>
        <mxCell id="AtObkG09vBZRzQi73Pwc-0" value="START" style="ellipse;whiteSpace=wrap;html=1;" vertex="1" parent="WIyWlLk6GJQsqaUBKTNV-1">
          <mxGeometry x="80" y="40" width="120" height="80" as="geometry" />
        </mxCell>
        <mxCell id="AtObkG09vBZRzQi73Pwc-4" style="edgeStyle=orthogonalEdgeStyle;rounded=0;orthogonalLoop=1;jettySize=auto;html=1;" edge="1" parent="WIyWlLk6GJQsqaUBKTNV-1" source="AtObkG09vBZRzQi73Pwc-1" target="AtObkG09vBZRzQi73Pwc-3">
          <mxGeometry relative="1" as="geometry" />
        </mxCell>
        <mxCell id="AtObkG09vBZRzQi73Pwc-1" value="pobierz wartość a&lt;br&gt;ustaw b = 2" style="rounded=0;whiteSpace=wrap;html=1;" vertex="1" parent="WIyWlLk6GJQsqaUBKTNV-1">
          <mxGeometry x="80" y="160" width="120" height="60" as="geometry" />
        </mxCell>
        <mxCell id="AtObkG09vBZRzQi73Pwc-6" value="" style="edgeStyle=orthogonalEdgeStyle;rounded=0;orthogonalLoop=1;jettySize=auto;html=1;" edge="1" parent="WIyWlLk6GJQsqaUBKTNV-1" source="AtObkG09vBZRzQi73Pwc-3" target="AtObkG09vBZRzQi73Pwc-5">
          <mxGeometry relative="1" as="geometry" />
        </mxCell>
        <mxCell id="AtObkG09vBZRzQi73Pwc-3" value="wyświetl a + b" style="rounded=0;whiteSpace=wrap;html=1;" vertex="1" parent="WIyWlLk6GJQsqaUBKTNV-1">
          <mxGeometry x="80" y="260" width="120" height="60" as="geometry" />
        </mxCell>
        <mxCell id="AtObkG09vBZRzQi73Pwc-5" value="KONIEC" style="ellipse;whiteSpace=wrap;html=1;" vertex="1" parent="WIyWlLk6GJQsqaUBKTNV-1">
          <mxGeometry x="80" y="360" width="120" height="80" as="geometry" />
        </mxCell>
        <mxCell id="AtObkG09vBZRzQi73Pwc-10" value="TAK" style="edgeStyle=orthogonalEdgeStyle;rounded=0;orthogonalLoop=1;jettySize=auto;html=1;" edge="1" parent="WIyWlLk6GJQsqaUBKTNV-1" source="AtObkG09vBZRzQi73Pwc-7" target="AtObkG09vBZRzQi73Pwc-9">
          <mxGeometry relative="1" as="geometry" />
        </mxCell>
        <mxCell id="AtObkG09vBZRzQi73Pwc-11" value="NIE" style="edgeStyle=orthogonalEdgeStyle;rounded=0;orthogonalLoop=1;jettySize=auto;html=1;" edge="1" parent="WIyWlLk6GJQsqaUBKTNV-1" source="AtObkG09vBZRzQi73Pwc-7" target="AtObkG09vBZRzQi73Pwc-8">
          <mxGeometry relative="1" as="geometry" />
        </mxCell>
        <mxCell id="AtObkG09vBZRzQi73Pwc-7" value="b &amp;lt; 3" style="rhombus;whiteSpace=wrap;html=1;" vertex="1" parent="WIyWlLk6GJQsqaUBKTNV-1">
          <mxGeometry x="430" y="40" width="80" height="80" as="geometry" />
        </mxCell>
        <mxCell id="AtObkG09vBZRzQi73Pwc-8" value="coś" style="rounded=0;whiteSpace=wrap;html=1;" vertex="1" parent="WIyWlLk6GJQsqaUBKTNV-1">
          <mxGeometry x="280" y="50" width="120" height="60" as="geometry" />
        </mxCell>
        <mxCell id="AtObkG09vBZRzQi73Pwc-9" value="coś" style="rounded=0;whiteSpace=wrap;html=1;" vertex="1" parent="WIyWlLk6GJQsqaUBKTNV-1">
          <mxGeometry x="540" y="50" width="120" height="60" as="geometry" />
        </mxCell>
      </root>
    </mxGraphModel>
  </diagram>
</mxfile>
